<?xml version="1.0" standalone="no"?>
<!DOCTYPE svg PUBLIC "-//W3C//DTD SVG 20010904//EN"
 "http://www.w3.org/TR/2001/REC-SVG-20010904/DTD/svg10.dtd">
<svg version="1.0" xmlns="http://www.w3.org/2000/svg"
 width="512.000000pt" height="512.000000pt" viewBox="0 0 512.000000 512.000000"
 preserveAspectRatio="xMidYMid meet">
<metadata>
Created by potrace 1.14, written by Peter Selinger 2001-2017
</metadata>
<g transform="translate(0.000000,512.000000) scale(0.100000,-0.100000)"
fill="#000000" stroke="none">
<path d="M1792 4862 c-20 -20 -139 -363 -168 -487 -22 -93 -27 -457 -7 -534
15 -62 58 -127 109 -168 l38 -30 2 -89 c2 -98 16 -140 61 -191 59 -65 177 -92
258 -59 34 14 35 14 55 -14 11 -16 45 -41 75 -55 96 -47 201 -29 274 48 33 35
33 35 69 20 80 -33 187 -8 251 59 33 36 34 36 69 21 79 -33 189 -8 252 58 61
65 63 77 64 369 2 298 -10 420 -60 610 -4 16 -63 255 -69 280 -22 90 -40 146
-49 156 -38 37 -111 21 -124 -28 -5 -21 10 -100 60 -298 36 -147 69 -293 73
-323 l7 -54 -69 1 c-57 0 -76 -4 -115 -27 -26 -15 -56 -39 -67 -53 -19 -25
-21 -25 -63 -10 -89 30 -203 -1 -257 -70 -19 -24 -23 -25 -50 -15 -46 20 -112
21 -162 5 l-46 -15 -34 34 c-19 18 -42 38 -51 43 -16 9 -13 21 33 134 76 188
87 222 78 247 -18 50 -85 66 -121 29 -8 -8 -47 -97 -88 -198 -71 -178 -75
-186 -108 -198 -53 -19 -119 -90 -135 -146 -13 -46 -14 -47 -19 -18 -8 37 -2
379 7 419 15 74 38 151 90 302 57 170 64 206 40 237 -21 27 -79 32 -103 8z
m1202 -862 c47 -17 53 -49 52 -247 -1 -178 -2 -182 -25 -207 -32 -34 -80 -35
-117 -2 l-28 23 -1 175 c-1 200 4 232 43 252 32 18 43 19 76 6z m-960 -81 c45
-21 51 -51 51 -249 l-1 -183 -28 -23 c-37 -33 -85 -32 -117 2 -23 25 -24 30
-25 202 -1 97 3 189 8 205 10 26 49 56 75 57 7 0 23 -5 37 -11z m646 -4 c15
-8 32 -27 37 -42 6 -15 9 -108 8 -205 -1 -172 -2 -179 -25 -203 -31 -33 -79
-33 -117 -1 l-28 24 0 178 c-1 99 3 190 7 204 18 51 69 70 118 45z m-325 -77
c46 -21 52 -48 50 -245 -1 -166 -3 -184 -20 -204 -28 -30 -54 -38 -92 -26 -54
17 -61 47 -58 247 1 96 5 183 10 194 4 10 22 24 39 32 39 17 39 17 71 2z"/>
<path d="M3363 4320 c-43 -17 -58 -84 -25 -113 10 -9 55 -39 100 -67 242 -146
467 -369 612 -605 137 -222 236 -506 267 -765 10 -86 9 -337 -2 -425 -11 -96
-10 -115 12 -137 44 -43 118 -19 128 42 2 14 7 43 10 65 14 78 12 379 -1 485
-50 386 -202 741 -444 1035 -30 37 -236 242 -270 270 -110 89 -324 226 -352
224 -7 0 -23 -4 -35 -9z"/>
<path d="M1360 4212 c-64 -21 -319 -252 -427 -387 -246 -306 -401 -676 -440
-1045 -17 -169 -6 -496 20 -548 17 -37 52 -53 88 -40 25 9 55 42 52 58 -10 51
-17 191 -17 330 1 168 22 341 54 445 68 218 74 233 137 360 117 234 310 472
502 621 116 89 124 98 124 132 0 50 -48 88 -93 74z"/>
<path d="M3385 3023 c-50 -16 -110 -65 -131 -104 -23 -45 -32 -114 -23 -166 9
-48 39 -97 253 -423 63 -96 113 -176 111 -178 -2 -2 -29 14 -62 36 -191 129
-454 298 -490 314 -47 21 -121 25 -172 9 -118 -36 -185 -176 -143 -299 15 -45
84 -125 120 -140 9 -4 98 -60 197 -126 99 -65 233 -152 297 -195 65 -42 118
-80 118 -84 0 -4 -9 -17 -20 -29 -27 -30 -48 -96 -45 -149 1 -42 -1 -47 -28
-59 -112 -50 -167 -174 -129 -295 14 -44 39 -73 207 -240 105 -104 229 -219
277 -254 124 -93 557 -351 588 -351 38 0 70 34 70 75 0 27 -8 40 -37 64 -21
17 -41 31 -45 31 -3 0 -44 23 -90 52 -46 28 -99 60 -118 70 -104 55 -316 198
-293 198 18 0 85 72 101 109 9 20 17 62 18 94 2 58 3 59 43 79 76 38 131 126
131 211 0 19 5 25 24 25 47 0 130 37 178 80 48 43 48 44 57 20 36 -91 124
-285 134 -296 7 -7 28 -14 46 -17 38 -4 81 30 81 65 0 25 -175 439 -193 457
-7 7 -27 15 -44 19 -30 6 -38 0 -121 -79 -84 -81 -102 -92 -162 -101 -28 -4
-73 10 -108 32 -23 15 -23 16 130 170 84 85 167 160 185 168 41 18 95 18 136
0 37 -15 278 -259 324 -326 16 -25 76 -136 132 -247 86 -170 105 -203 129
-211 43 -15 88 8 97 49 7 29 -5 58 -93 233 -55 111 -121 230 -146 266 -64 92
-318 344 -375 372 -37 18 -64 23 -135 24 l-88 2 -124 186 c-67 103 -124 190
-126 194 -2 4 -38 61 -82 127 -43 66 -132 201 -197 300 -65 100 -131 190 -146
201 -65 47 -147 61 -218 37z m126 -159 c9 -8 81 -114 160 -235 79 -121 213
-324 297 -452 84 -127 159 -243 167 -257 13 -25 10 -29 -134 -172 l-148 -147
-44 45 c-42 43 -113 84 -148 84 -9 1 -89 49 -178 108 -90 59 -262 172 -382
251 -239 157 -255 173 -231 231 15 36 37 50 80 50 32 0 54 -14 470 -287 362
-238 423 -276 446 -279 14 -1 36 7 50 19 47 41 38 65 -101 277 -70 107 -160
245 -200 305 -264 403 -250 378 -234 425 19 53 89 72 130 34z m286 -1416 c139
-138 159 -170 133 -218 -16 -30 -67 -50 -100 -39 -14 5 -84 68 -155 139 -116
117 -129 133 -129 164 0 49 36 86 82 86 32 0 49 -13 169 -132z m-310 -159 c40
-15 270 -249 279 -284 14 -54 -45 -115 -98 -102 -30 8 -276 250 -289 284 -13
34 -1 70 28 93 29 23 41 24 80 9z"/>
<path d="M1127 2406 c-50 -18 -36 -6 -377 -346 -321 -322 -370 -375 -446 -489
-96 -143 -304 -498 -304 -518 0 -36 38 -73 74 -73 43 0 55 15 156 185 131 222
237 385 290 445 49 56 623 631 645 646 53 38 125 -4 125 -73 0 -35 -13 -50
-275 -313 -245 -245 -275 -279 -275 -307 0 -40 33 -73 74 -73 27 0 75 45 386
355 239 239 366 358 386 364 34 9 78 -8 94 -38 29 -55 27 -58 -325 -411 -359
-360 -358 -358 -314 -414 15 -19 30 -26 54 -26 30 0 66 33 424 390 360 360
393 390 424 390 52 0 91 -43 84 -92 -4 -33 -42 -74 -356 -388 -193 -193 -355
-358 -360 -368 -23 -45 17 -102 72 -102 28 0 68 36 337 305 276 276 309 305
338 305 46 0 82 -38 82 -87 0 -36 -16 -53 -435 -473 -394 -394 -435 -438 -435
-468 0 -19 8 -40 21 -53 18 -18 29 -20 78 -16 31 3 67 8 81 11 75 15 321 58
361 63 39 4 50 1 74 -20 22 -19 29 -33 29 -62 0 -55 -33 -79 -130 -95 -44 -6
-88 -14 -99 -16 -20 -4 -562 -98 -620 -108 -16 -2 -55 -9 -85 -15 -30 -6 -71
-13 -90 -16 -19 -3 -51 -8 -70 -12 -78 -13 -108 -89 -52 -133 27 -22 57 -23
142 -5 14 3 77 15 140 25 63 11 126 22 140 25 14 3 54 10 90 15 36 6 126 22
200 35 159 28 182 32 235 40 67 11 185 36 210 45 37 14 94 70 118 114 74 142
-40 335 -198 336 -22 0 -78 -7 -125 -16 -175 -32 -195 -65 192 323 247 248
351 359 363 388 45 109 -3 242 -109 302 -13 7 -14 13 -1 48 30 84 5 196 -56
252 -62 57 -163 77 -244 48 -28 -10 -41 -11 -44 -3 -9 28 -80 93 -120 111 -82
36 -191 19 -253 -39 -25 -25 -26 -25 -33 -5 -9 31 -89 96 -133 109 -51 16
-107 15 -155 -2z"/>
<path d="M3125 828 c-89 -34 -279 -84 -352 -93 -27 -4 -59 -9 -73 -12 -14 -3
-116 -6 -227 -7 -180 -2 -205 -5 -223 -21 -23 -21 -26 -71 -6 -98 20 -26 92
-35 269 -32 140 3 225 10 339 30 146 26 400 111 424 142 31 41 5 107 -46 117
-14 3 -59 -8 -105 -26z"/>
</g>
</svg>
